<svg
  viewBox="0 0 794.78 794.78">

  <defs>
    <style>
      .st0, .st1, .st2 {
      fill: none;
      }

      .st3 {
      fill: #fbf071;
      }

      .st4 {
      fill: #fff;
      stroke-miterlimit: 1.13;
      stroke-width: 1.08px;
      }

      .st4, .st1, .st2 {
      stroke: #231f20;
      }

      .st5 {
      font-size: 53.36px;
      }

      .st5, .st6, .st7, .st8, .st9, .st10, .st11, .st12, .st13, .st14, .st15, .st16, .st17, .st18 {
      font-family: MyriadPro-Regular, 'Myriad Pro';
      }

      .st1 {
      stroke-width: .5px;
      }

      .st6 {
      font-size: 48px;
      }

      .st19 {
      clip-path: url(#clippath-1);
      }

      .st20 {
      clip-path: url(#clippath-3);
      }

      .st21 {
      clip-path: url(#clippath-4);
      }

      .st22 {
      clip-path: url(#clippath-2);
      }

      .st23 {
      clip-path: url(#clippath-5);
      }

      .st24 {
      fill: #f37b81;
      }

      .st25 {
      fill: #73d1f6;
      }

      .st2 {
      stroke-width: 7.2px;
      }

      .st26 {
      fill: #00a551;
      }

      .st7 {
      font-size: 49.22px;
      }

      .st7, .st8, .st9, .st10, .st11, .st12, .st13, .st14, .st15, .st16, .st17, .st18 {
      fill: #231f20;
      }

      .st8 {
      font-size: 49.24px;
      }

      .st9 {
      font-size: 47.66px;
      }

      .st10 {
      font-size: 48.86px;
      }

      .st11 {
      font-size: 46.91px;
      }

      .st12 {
      font-size: 47.31px;
      }

      .st27 {
      clip-path: url(#clippath);
      }

      .st13 {
      font-size: 42.93px;
      }

      .st14 {
      font-size: 42.3px;
      }

      .st15 {
      font-size: 42.32px;
      }

      .st16 {
      font-size: 42.87px;
      }

      .st17 {
      font-size: 43.23px;
      }

      .st18 {
      font-size: 43.19px;
      }
    </style>
    <clipPath id="clippath">
      <path class="st0"
        d="M229.85,757.24l65.15-20.68,46.12,53.71h-.03c-12.51-1.78-24.82-4.14-36.93-7.05l-9.1-46.65-34.62,33.41c-10.41-3.83-20.62-8.08-30.6-12.74h0Z" />
    </clipPath>
    <clipPath id="clippath-1">
      <path class="st0"
        d="M1.85,431.2l50.3,46.28-23.72,66.71-.02-.03c-4.67-11.74-8.74-23.6-12.22-35.55l35.97-31.07-46.19-13.46c-1.85-10.94-3.23-21.91-4.14-32.89h0Z" />
    </clipPath>
    <clipPath id="clippath-2">
      <path class="st0"
        d="M170.01,72.21l-14.55,66.79-69.56,13.22.02-.03c7.77-9.96,15.96-19.46,24.52-28.5l44.98,15.36-11.71-46.66c8.51-7.12,17.28-13.85,26.29-20.18h0Z" />
    </clipPath>
    <clipPath id="clippath-3">
      <path class="st0"
        d="M564.93,37.54l-65.15,20.68-46.12-53.71h.03c12.51,1.78,24.82,4.14,36.93,7.05l9.1,46.65,34.62-33.41c10.41,3.83,20.62,8.08,30.6,12.74h0Z" />
    </clipPath>
    <clipPath id="clippath-4">
      <path class="st0"
        d="M792.92,363.57l-50.3-46.28,23.72-66.71.02.03c4.67,11.74,8.74,23.6,12.22,35.55l-35.97,31.07,46.19,13.46c1.85,10.94,3.23,21.91,4.14,32.89h0Z" />
    </clipPath>
    <clipPath id="clippath-5">
      <path class="st0"
        d="M624.77,722.57l14.55-66.79,69.56-13.22-.02.03c-7.77,9.96-15.96,19.46-24.52,28.5l-44.98-15.36,11.71,46.66c-8.51,7.12-17.28,13.85-26.29,20.18h0Z" />
    </clipPath>
  </defs>
  <g id="vilas">
    <path class="st4"
      d="M684.55,671.3c67.96-71.23,109.69-167.7,109.69-273.92,0-22.81-1.93-45.17-5.63-66.92l-45.99-13.18,35.77-31.27c-35.3-120.98-126.66-218.05-244.06-261.22l-34.62,33.41-9.1-46.65c-29.9-7.2-61.11-11.02-93.22-11.02-96.49,0-184.93,34.44-253.72,91.69l11.73,46.76-45.17-15.52C42.27,194.7.54,291.17.54,397.39c0,22.81,1.93,45.17,5.63,66.92l45.99,13.18-35.77,31.27c35.3,120.98,126.66,218.05,244.06,261.22l34.62-33.41,9.1,46.65c29.9,7.2,61.11,11.02,93.22,11.02,96.49,0,184.93-34.44,253.72-91.69l-11.73-46.76,45.17,15.52Z" />
    <g class="st27">
      <g>
        <rect class="st0" x="310.67" y="701.87" width="87.84" height="72" />
        <line class="st1" x1="354.59" y1="773.87" x2="354.59" y2="701.87" />
        <line class="st1" x1="325.31" y1="773.87" x2="325.31" y2="701.87" />
        <line class="st1" x1="383.87" y1="773.87" x2="383.87" y2="701.87" />
        <line class="st2" x1="360.43" y1="773.87" x2="360.43" y2="701.87" />
        <line class="st2" x1="331.15" y1="773.87" x2="331.15" y2="701.87" />
        <line class="st2" x1="389.71" y1="773.87" x2="389.71" y2="701.87" />
        <line class="st2" x1="319.47" y1="773.87" x2="319.47" y2="701.87" />
        <line class="st2" x1="348.75" y1="773.87" x2="348.75" y2="701.87" />
        <line class="st2" x1="378.03" y1="773.87" x2="378.03" y2="701.87" />
      </g>
      <g>
        <rect class="st0" x="310.67" y="773.87" width="87.84" height="72" />
        <line class="st1" x1="354.59" y1="845.87" x2="354.59" y2="773.87" />
        <line class="st1" x1="325.31" y1="845.87" x2="325.31" y2="773.87" />
        <line class="st1" x1="383.87" y1="845.87" x2="383.87" y2="773.87" />
        <line class="st2" x1="360.43" y1="845.87" x2="360.43" y2="773.87" />
        <line class="st2" x1="331.15" y1="845.87" x2="331.15" y2="773.87" />
        <line class="st2" x1="389.71" y1="845.87" x2="389.71" y2="773.87" />
        <line class="st2" x1="319.47" y1="845.87" x2="319.47" y2="773.87" />
        <line class="st2" x1="348.75" y1="845.87" x2="348.75" y2="773.87" />
        <line class="st2" x1="378.03" y1="845.87" x2="378.03" y2="773.87" />
      </g>
      <g>
        <rect class="st0" x="222.83" y="701.87" width="87.84" height="72" />
        <line class="st1" x1="266.75" y1="773.87" x2="266.75" y2="701.87" />
        <line class="st1" x1="237.47" y1="773.87" x2="237.47" y2="701.87" />
        <line class="st1" x1="296.03" y1="773.87" x2="296.03" y2="701.87" />
        <line class="st2" x1="272.59" y1="773.87" x2="272.59" y2="701.87" />
        <line class="st2" x1="243.31" y1="773.87" x2="243.31" y2="701.87" />
        <line class="st2" x1="301.87" y1="773.87" x2="301.87" y2="701.87" />
        <line class="st2" x1="231.63" y1="773.87" x2="231.63" y2="701.87" />
        <line class="st2" x1="260.91" y1="773.87" x2="260.91" y2="701.87" />
        <line class="st2" x1="290.19" y1="773.87" x2="290.19" y2="701.87" />
      </g>
      <g>
        <rect class="st0" x="222.83" y="773.87" width="87.84" height="72" />
        <line class="st1" x1="266.75" y1="845.87" x2="266.75" y2="773.87" />
        <line class="st1" x1="237.47" y1="845.87" x2="237.47" y2="773.87" />
        <line class="st1" x1="296.03" y1="845.87" x2="296.03" y2="773.87" />
        <line class="st2" x1="272.59" y1="845.87" x2="272.59" y2="773.87" />
        <line class="st2" x1="243.31" y1="845.87" x2="243.31" y2="773.87" />
        <line class="st2" x1="301.87" y1="845.87" x2="301.87" y2="773.87" />
        <line class="st2" x1="231.63" y1="845.87" x2="231.63" y2="773.87" />
        <line class="st2" x1="260.91" y1="845.87" x2="260.91" y2="773.87" />
        <line class="st2" x1="290.19" y1="845.87" x2="290.19" y2="773.87" />
      </g>
    </g>
    <g class="st19">
      <g>
        <rect class="st0" x="44.61" y="485.95" width="72" height="87.84"
          transform="translate(-252.48 109.98) rotate(-29.77)" />
        <line class="st1" x1="49.36" y1="547.74" x2="111.85" y2="511.99" />
        <line class="st1" x1="34.82" y1="522.33" x2="97.31" y2="486.57" />
        <line class="st1" x1="63.9" y1="573.16" x2="126.39" y2="537.4" />
        <line class="st2" x1="52.26" y1="552.81" x2="114.75" y2="517.06" />
        <line class="st2" x1="37.72" y1="527.4" x2="100.21" y2="491.64" />
        <line class="st2" x1="66.8" y1="578.23" x2="129.29" y2="542.47" />
        <line class="st2" x1="31.92" y1="517.26" x2="94.41" y2="481.51" />
        <line class="st2" x1="46.46" y1="542.67" x2="108.95" y2="506.92" />
        <line class="st2" x1="61" y1="568.09" x2="123.49" y2="532.34" />
      </g>
      <g>
        <rect class="st0" x="-17.89" y="521.7" width="72" height="87.84"
          transform="translate(-278.49 83.66) rotate(-29.77)" />
        <line class="st1" x1="-13.14" y1="583.5" x2="49.36" y2="547.74" />
        <line class="st1" x1="-27.68" y1="558.08" x2="34.82" y2="522.33" />
        <line class="st1" x1="1.4" y1="608.91" x2="63.9" y2="573.16" />
        <line class="st2" x1="-10.24" y1="588.57" x2="52.26" y2="552.81" />
        <line class="st2" x1="-24.78" y1="563.15" x2="37.72" y2="527.4" />
        <line class="st2" x1="4.3" y1="613.98" x2="66.8" y2="578.23" />
        <line class="st2" x1="-30.58" y1="553.01" x2="31.92" y2="517.26" />
        <line class="st2" x1="-16.04" y1="578.43" x2="46.46" y2="542.67" />
        <line class="st2" x1="-1.5" y1="603.84" x2="61" y2="568.09" />
      </g>
      <g>
        <rect class="st0" x=".99" y="409.7" width="72" height="87.84"
          transform="translate(-220.38 78.25) rotate(-29.77)" />
        <line class="st1" x1="5.74" y1="471.5" x2="68.23" y2="435.75" />
        <line class="st1" x1="-8.8" y1="446.08" x2="53.69" y2="410.33" />
        <line class="st1" x1="20.28" y1="496.91" x2="82.77" y2="461.16" />
        <line class="st2" x1="8.64" y1="476.57" x2="71.13" y2="440.81" />
        <line class="st2" x1="-5.9" y1="451.15" x2="56.59" y2="415.4" />
        <line class="st2" x1="23.18" y1="501.98" x2="85.67" y2="466.23" />
        <line class="st2" x1="-11.7" y1="441.02" x2="50.79" y2="405.26" />
        <line class="st2" x1="2.84" y1="466.43" x2="65.33" y2="430.68" />
        <line class="st2" x1="17.38" y1="491.85" x2="79.87" y2="456.09" />
      </g>
      <g>
        <rect class="st0" x="-61.51" y="445.46" width="72" height="87.84"
          transform="translate(-246.39 51.94) rotate(-29.77)" />
        <line class="st1" x1="-56.76" y1="507.25" x2="5.74" y2="471.5" />
        <line class="st1" x1="-71.3" y1="481.84" x2="-8.8" y2="446.08" />
        <line class="st1" x1="-42.22" y1="532.67" x2="20.28" y2="496.91" />
        <line class="st2" x1="-53.86" y1="512.32" x2="8.64" y2="476.57" />
        <line class="st2" x1="-68.4" y1="486.91" x2="-5.9" y2="451.15" />
        <line class="st2" x1="-39.32" y1="537.74" x2="23.18" y2="501.98" />
        <line class="st2" x1="-74.2" y1="476.77" x2="-11.7" y2="441.02" />
        <line class="st2" x1="-59.66" y1="502.18" x2="2.84" y2="466.43" />
        <line class="st2" x1="-45.12" y1="527.6" x2="17.38" y2="491.85" />
      </g>
    </g>
    <g class="st22">
      <g>
        <rect class="st0" x="80.7" y="154.01" width="87.84" height="72"
          transform="translate(-102.22 203.35) rotate(-60.11)" />
        <line class="st1" x1="93.41" y1="172.07" x2="155.83" y2="207.95" />
        <line class="st1" x1="108" y1="146.68" x2="170.42" y2="182.57" />
        <line class="st1" x1="78.82" y1="197.45" x2="141.24" y2="233.34" />
        <line class="st2" x1="90.5" y1="177.13" x2="152.92" y2="213.02" />
        <line class="st2" x1="105.09" y1="151.75" x2="167.51" y2="187.63" />
        <line class="st2" x1="75.91" y1="202.52" x2="138.33" y2="238.4" />
        <line class="st2" x1="110.91" y1="141.62" x2="173.33" y2="177.5" />
        <line class="st2" x1="96.32" y1="167.01" x2="158.74" y2="202.89" />
        <line class="st2" x1="81.73" y1="192.39" x2="144.15" y2="228.27" />
      </g>
      <g>
        <rect class="st0" x="18.28" y="118.13" width="87.84" height="72"
          transform="translate(-102.42 131.24) rotate(-60.11)" />
        <line class="st1" x1="30.99" y1="136.18" x2="93.41" y2="172.07" />
        <line class="st1" x1="45.58" y1="110.8" x2="108" y2="146.68" />
        <line class="st1" x1="16.4" y1="161.57" x2="78.82" y2="197.45" />
        <line class="st2" x1="28.08" y1="141.25" x2="90.5" y2="177.13" />
        <line class="st2" x1="42.67" y1="115.86" x2="105.09" y2="151.75" />
        <line class="st2" x1="13.49" y1="166.63" x2="75.91" y2="202.52" />
        <line class="st2" x1="48.49" y1="105.74" x2="110.91" y2="141.62" />
        <line class="st2" x1="33.9" y1="131.12" x2="96.32" y2="167.01" />
        <line class="st2" x1="19.31" y1="156.51" x2="81.73" y2="192.39" />
      </g>
      <g>
        <rect class="st0" x="124.48" y="77.86" width="87.84" height="72"
          transform="translate(-14.24 203.11) rotate(-60.11)" />
        <line class="st1" x1="137.19" y1="95.92" x2="199.61" y2="131.8" />
        <line class="st1" x1="151.78" y1="70.53" x2="214.2" y2="106.41" />
        <line class="st1" x1="122.6" y1="121.3" x2="185.02" y2="157.18" />
        <line class="st2" x1="134.28" y1="100.98" x2="196.7" y2="136.86" />
        <line class="st2" x1="148.87" y1="75.59" x2="211.29" y2="111.48" />
        <line class="st2" x1="119.69" y1="126.36" x2="182.11" y2="162.25" />
        <line class="st2" x1="154.69" y1="65.47" x2="217.11" y2="101.35" />
        <line class="st2" x1="140.1" y1="90.85" x2="202.52" y2="126.74" />
        <line class="st2" x1="125.51" y1="116.24" x2="187.93" y2="152.12" />
      </g>
      <g>
        <rect class="st0" x="62.06" y="41.97" width="87.84" height="72"
          transform="translate(-14.44 130.99) rotate(-60.11)" />
        <line class="st1" x1="74.77" y1="60.03" x2="137.19" y2="95.92" />
        <line class="st1" x1="89.36" y1="34.65" x2="151.78" y2="70.53" />
        <line class="st1" x1="60.18" y1="85.42" x2="122.6" y2="121.3" />
        <line class="st2" x1="71.86" y1="65.09" x2="134.28" y2="100.98" />
        <line class="st2" x1="86.45" y1="39.71" x2="148.87" y2="75.59" />
        <line class="st2" x1="57.26" y1="90.48" x2="119.69" y2="126.36" />
        <line class="st2" x1="92.27" y1="29.58" x2="154.69" y2="65.47" />
        <line class="st2" x1="77.68" y1="54.97" x2="140.1" y2="90.85" />
        <line class="st2" x1="63.09" y1="80.35" x2="125.51" y2="116.24" />
      </g>
    </g>
    <g class="st20">
      <g>
        <rect class="st0" x="396.26" y="20.9" width="87.84" height="72" />
        <line class="st1" x1="440.18" y1="20.9" x2="440.18" y2="92.9" />
        <line class="st1" x1="469.46" y1="20.9" x2="469.46" y2="92.9" />
        <line class="st1" x1="410.9" y1="20.9" x2="410.9" y2="92.9" />
        <line class="st2" x1="434.34" y1="20.9" x2="434.34" y2="92.9" />
        <line class="st2" x1="463.62" y1="20.9" x2="463.62" y2="92.9" />
        <line class="st2" x1="405.06" y1="20.9" x2="405.06" y2="92.9" />
        <line class="st2" x1="475.3" y1="20.9" x2="475.3" y2="92.9" />
        <line class="st2" x1="446.02" y1="20.9" x2="446.02" y2="92.9" />
        <line class="st2" x1="416.74" y1="20.9" x2="416.74" y2="92.9" />
      </g>
      <g>
        <rect class="st0" x="396.26" y="-51.1" width="87.84" height="72" />
        <line class="st1" x1="440.18" y1="-51.1" x2="440.18" y2="20.9" />
        <line class="st1" x1="469.46" y1="-51.1" x2="469.46" y2="20.9" />
        <line class="st1" x1="410.9" y1="-51.1" x2="410.9" y2="20.9" />
        <line class="st2" x1="434.34" y1="-51.1" x2="434.34" y2="20.9" />
        <line class="st2" x1="463.62" y1="-51.1" x2="463.62" y2="20.9" />
        <line class="st2" x1="405.06" y1="-51.1" x2="405.06" y2="20.9" />
        <line class="st2" x1="475.3" y1="-51.1" x2="475.3" y2="20.9" />
        <line class="st2" x1="446.02" y1="-51.1" x2="446.02" y2="20.9" />
        <line class="st2" x1="416.74" y1="-51.1" x2="416.74" y2="20.9" />
      </g>
      <g>
        <rect class="st0" x="484.1" y="20.9" width="87.84" height="72" />
        <line class="st1" x1="528.02" y1="20.9" x2="528.02" y2="92.9" />
        <line class="st1" x1="557.3" y1="20.9" x2="557.3" y2="92.9" />
        <line class="st1" x1="498.74" y1="20.9" x2="498.74" y2="92.9" />
        <line class="st2" x1="522.18" y1="20.9" x2="522.18" y2="92.9" />
        <line class="st2" x1="551.46" y1="20.9" x2="551.46" y2="92.9" />
        <line class="st2" x1="492.9" y1="20.9" x2="492.9" y2="92.9" />
        <line class="st2" x1="563.14" y1="20.9" x2="563.14" y2="92.9" />
        <line class="st2" x1="533.86" y1="20.9" x2="533.86" y2="92.9" />
        <line class="st2" x1="504.58" y1="20.9" x2="504.58" y2="92.9" />
      </g>
      <g>
        <rect class="st0" x="484.1" y="-51.1" width="87.84" height="72" />
        <line class="st1" x1="528.02" y1="-51.1" x2="528.02" y2="20.9" />
        <line class="st1" x1="557.3" y1="-51.1" x2="557.3" y2="20.9" />
        <line class="st1" x1="498.74" y1="-51.1" x2="498.74" y2="20.9" />
        <line class="st2" x1="522.18" y1="-51.1" x2="522.18" y2="20.9" />
        <line class="st2" x1="551.46" y1="-51.1" x2="551.46" y2="20.9" />
        <line class="st2" x1="492.9" y1="-51.1" x2="492.9" y2="20.9" />
        <line class="st2" x1="563.14" y1="-51.1" x2="563.14" y2="20.9" />
        <line class="st2" x1="533.86" y1="-51.1" x2="533.86" y2="20.9" />
        <line class="st2" x1="504.58" y1="-51.1" x2="504.58" y2="20.9" />
      </g>
    </g>
    <g class="st21">
      <g>
        <rect class="st0" x="678.17" y="220.99" width="72" height="87.84"
          transform="translate(-37.27 389.62) rotate(-29.77)" />
        <line class="st1" x1="745.42" y1="247.03" x2="682.92" y2="282.79" />
        <line class="st1" x1="759.96" y1="272.45" x2="697.47" y2="308.2" />
        <line class="st1" x1="730.88" y1="221.62" x2="668.38" y2="257.37" />
        <line class="st2" x1="742.52" y1="241.97" x2="680.02" y2="277.72" />
        <line class="st2" x1="757.06" y1="267.38" x2="694.56" y2="303.13" />
        <line class="st2" x1="727.98" y1="216.55" x2="665.48" y2="252.3" />
        <line class="st2" x1="762.86" y1="277.52" x2="700.37" y2="313.27" />
        <line class="st2" x1="748.32" y1="252.1" x2="685.82" y2="287.86" />
        <line class="st2" x1="733.78" y1="226.69" x2="671.28" y2="262.44" />
      </g>
      <g>
        <rect class="st0" x="740.67" y="185.24" width="72" height="87.84"
          transform="translate(-11.27 415.94) rotate(-29.77)" />
        <line class="st1" x1="807.91" y1="211.28" x2="745.42" y2="247.03" />
        <line class="st1" x1="822.46" y1="236.7" x2="759.96" y2="272.45" />
        <line class="st1" x1="793.37" y1="185.87" x2="730.88" y2="221.62" />
        <line class="st2" x1="805.01" y1="206.21" x2="742.52" y2="241.97" />
        <line class="st2" x1="819.55" y1="231.63" x2="757.06" y2="267.38" />
        <line class="st2" x1="790.47" y1="180.8" x2="727.98" y2="216.55" />
        <line class="st2" x1="825.36" y1="241.76" x2="762.86" y2="277.52" />
        <line class="st2" x1="810.81" y1="216.35" x2="748.32" y2="252.1" />
        <line class="st2" x1="796.27" y1="190.93" x2="733.78" y2="226.69" />
      </g>
      <g>
        <rect class="st0" x="721.79" y="297.24" width="72" height="87.84"
          transform="translate(-69.37 421.35) rotate(-29.77)" />
        <line class="st1" x1="789.04" y1="323.28" x2="726.55" y2="359.03" />
        <line class="st1" x1="803.58" y1="348.69" x2="741.09" y2="384.45" />
        <line class="st1" x1="774.5" y1="297.86" x2="712" y2="333.62" />
        <line class="st2" x1="786.14" y1="318.21" x2="723.65" y2="353.96" />
        <line class="st2" x1="800.68" y1="343.62" x2="738.18" y2="379.38" />
        <line class="st2" x1="771.6" y1="292.79" x2="709.1" y2="328.55" />
        <line class="st2" x1="806.48" y1="353.76" x2="743.99" y2="389.52" />
        <line class="st2" x1="791.94" y1="328.35" x2="729.45" y2="364.1" />
        <line class="st2" x1="777.4" y1="302.93" x2="714.9" y2="338.69" />
      </g>
      <g>
        <rect class="st0" x="784.29" y="261.48" width="72" height="87.84"
          transform="translate(-43.37 447.66) rotate(-29.77)" />
        <line class="st1" x1="851.54" y1="287.52" x2="789.04" y2="323.28" />
        <line class="st1" x1="866.08" y1="312.94" x2="803.58" y2="348.69" />
        <line class="st1" x1="836.99" y1="262.11" x2="774.5" y2="297.86" />
        <line class="st2" x1="848.64" y1="282.45" x2="786.14" y2="318.21" />
        <line class="st2" x1="863.17" y1="307.87" x2="800.68" y2="343.62" />
        <line class="st2" x1="834.09" y1="257.04" x2="771.6" y2="292.79" />
        <line class="st2" x1="868.98" y1="318.01" x2="806.48" y2="353.76" />
        <line class="st2" x1="854.44" y1="292.59" x2="791.94" y2="328.35" />
        <line class="st2" x1="839.89" y1="267.18" x2="777.4" y2="302.93" />
      </g>
    </g>
    <g class="st23">
      <g>
        <rect class="st0" x="626.24" y="568.77" width="87.84" height="72"
          transform="translate(-188.15 884.35) rotate(-60.11)" />
        <line class="st1" x1="701.37" y1="622.71" x2="638.95" y2="586.83" />
        <line class="st1" x1="686.77" y1="648.09" x2="624.35" y2="612.21" />
        <line class="st1" x1="715.96" y1="597.32" x2="653.54" y2="561.44" />
        <line class="st2" x1="704.28" y1="617.65" x2="641.86" y2="581.76" />
        <line class="st2" x1="689.69" y1="643.03" x2="627.26" y2="607.15" />
        <line class="st2" x1="718.87" y1="592.26" x2="656.45" y2="556.38" />
        <line class="st2" x1="683.86" y1="653.16" x2="621.44" y2="617.27" />
        <line class="st2" x1="698.46" y1="627.77" x2="636.04" y2="591.89" />
        <line class="st2" x1="713.05" y1="602.39" x2="650.63" y2="566.5" />
      </g>
      <g>
        <rect class="st0" x="688.66" y="604.65" width="87.84" height="72"
          transform="translate(-187.95 956.47) rotate(-60.11)" />
        <line class="st1" x1="763.79" y1="658.59" x2="701.37" y2="622.71" />
        <line class="st1" x1="749.2" y1="683.98" x2="686.77" y2="648.09" />
        <line class="st1" x1="778.38" y1="633.21" x2="715.96" y2="597.32" />
        <line class="st2" x1="766.7" y1="653.53" x2="704.28" y2="617.65" />
        <line class="st2" x1="752.11" y1="678.91" x2="689.69" y2="643.03" />
        <line class="st2" x1="781.29" y1="628.15" x2="718.87" y2="592.26" />
        <line class="st2" x1="746.28" y1="689.04" x2="683.86" y2="653.16" />
        <line class="st2" x1="760.88" y1="663.66" x2="698.46" y2="627.77" />
        <line class="st2" x1="775.47" y1="638.27" x2="713.05" y2="602.39" />
      </g>
      <g>
        <rect class="st0" x="582.46" y="644.92" width="87.84" height="72"
          transform="translate(-276.13 884.6) rotate(-60.11)" />
        <line class="st1" x1="657.59" y1="698.86" x2="595.17" y2="662.98" />
        <line class="st1" x1="643" y1="724.25" x2="580.58" y2="688.36" />
        <line class="st1" x1="672.18" y1="673.48" x2="609.76" y2="637.59" />
        <line class="st2" x1="660.5" y1="693.8" x2="598.08" y2="657.92" />
        <line class="st2" x1="645.91" y1="719.18" x2="583.49" y2="683.3" />
        <line class="st2" x1="675.09" y1="668.41" x2="612.67" y2="632.53" />
        <line class="st2" x1="640.09" y1="729.31" x2="577.66" y2="693.43" />
        <line class="st2" x1="654.68" y1="703.93" x2="592.26" y2="668.04" />
        <line class="st2" x1="669.27" y1="678.54" x2="606.85" y2="642.66" />
      </g>
      <g>
        <rect class="st0" x="644.88" y="680.8" width="87.84" height="72"
          transform="translate(-275.93 956.71) rotate(-60.11)" />
        <line class="st1" x1="720.01" y1="734.75" x2="657.59" y2="698.86" />
        <line class="st1" x1="705.42" y1="760.13" x2="643" y2="724.25" />
        <line class="st1" x1="734.6" y1="709.36" x2="672.18" y2="673.48" />
        <line class="st2" x1="722.92" y1="729.68" x2="660.5" y2="693.8" />
        <line class="st2" x1="708.33" y1="755.07" x2="645.91" y2="719.18" />
        <line class="st2" x1="737.51" y1="704.3" x2="675.09" y2="668.41" />
        <line class="st2" x1="702.51" y1="765.19" x2="640.09" y2="729.31" />
        <line class="st2" x1="717.1" y1="739.81" x2="654.68" y2="703.93" />
        <line class="st2" x1="731.69" y1="714.42" x2="669.27" y2="678.54" />
      </g>
    </g>
  </g>
  <g id="ext">
    <g>
      <path class="st25"
        d="M531.22,161.92l41.77-72.35c-51.76-29.59-111.7-46.51-175.6-46.51v83.52c48.68,0,94.35,12.85,133.83,35.34Z" />
      <text class="st7" transform="translate(464.07 107.74) rotate(17.21) scale(.98 1) skewX(.63)">
        <tspan x="0" y="0">V</tspan>
      </text>
    </g>
    <g>
      <path class="st25"
        d="M263.56,161.92l-41.77-72.35c-53.55,30.62-98.33,74.81-129.68,127.89l72.34,41.77c24.02-40.4,58.23-74.03,99.11-97.31Z" />
      <text class="st10" transform="translate(176.94 200.53) rotate(-43.66) skewX(-1.12)">
        <tspan x="0" y="0">V</tspan>
      </text>
    </g>
    <g>
      <path class="st25"
        d="M260.39,631.01l-41.77,72.34c52.48,30.73,113.56,48.36,178.77,48.36v-83.52c-49.99,0-96.81-13.56-137-37.18Z" />
      <text class="st8" transform="translate(333.46 683.69) rotate(-164.9) scale(.98 1) skewX(.56)">
        <tspan x="0" y="0">V</tspan>
      </text>
    </g>
    <g>
      <path class="st24"
        d="M397.39,126.58V43.06c-63.9,0-123.84,16.92-175.6,46.51l41.77,72.35c39.48-22.48,85.15-35.34,133.83-35.34Z" />
      <text class="st9" transform="translate(308.96 121.19) rotate(-19.48) scale(.98 1) skewX(-.7)">
        <tspan x="0" y="0">V</tspan>
      </text>
    </g>
    <g>
      <path class="st24"
        d="M534.39,631.01l41.77,72.34c53.98-31.61,98.84-77.08,129.7-131.54l-72.35-41.77c-23.53,41.79-57.82,76.7-99.12,100.97Z" />
      <text class="st12" transform="translate(621.8 589.7) rotate(135.39) skewX(-1.12)">
        <tspan x="0" y="0">V</tspan>
      </text>
    </g>
    <g>
      <path class="st24"
        d="M164.45,259.23l-72.34-41.77c-30.57,51.75-48.35,111.95-49,176.26h83.52c.65-49.09,14.36-95.02,37.82-134.49Z" />
      <text class="st11"
        transform="translate(109.77 329.38) rotate(-73.78) scale(1.02 1) skewX(-.6)">
        <tspan x="0" y="0">V</tspan>
      </text>
    </g>
    <g>
      <path class="st3"
        d="M668.15,393.72h83.52c-.65-64.31-18.43-124.5-49-176.26l-72.34,41.77c23.46,39.47,37.17,85.4,37.82,134.49Z" />
      <text class="st14" transform="translate(680.63 314.15) rotate(72.57) scale(1.02 1) skewX(.64)">
        <tspan x="0" y="0">V</tspan>
      </text>
    </g>
    <g>
      <path class="st3"
        d="M397.39,668.2v83.52c65.21,0,126.29-17.63,178.77-48.36l-41.77-72.34c-40.19,23.62-87.01,37.18-137,37.18Z" />
      <text class="st13"
        transform="translate(490.16 673.76) rotate(157.39) scale(.99 1) skewX(-.79)">
        <tspan x="0" y="0">V</tspan>
      </text>
    </g>
    <g>
      <path class="st3"
        d="M126.58,397.39c0-1.23.03-2.45.05-3.67H43.1c-.01,1.22-.05,2.44-.05,3.67,0,63.42,16.68,122.93,45.86,174.43l72.35-41.77c-22.07-39.21-34.68-84.46-34.68-132.66Z" />
      <text class="st15"
        transform="translate(116.75 480.14) rotate(-109.98) scale(1.01 1) skewX(.72)">
        <tspan x="0" y="0">V</tspan>
      </text>
    </g>
    <g>
      <path class="st26"
        d="M630.33,259.23l72.34-41.77c-31.35-53.08-76.13-97.27-129.68-127.89l-41.77,72.35c40.88,23.28,75.1,56.91,99.11,97.31Z" />
      <text class="st18" transform="translate(596.33 180.19) rotate(46.9) skewX(1.11)">
        <tspan x="0" y="0">V</tspan>
      </text>
    </g>
    <g>
      <path class="st26"
        d="M751.67,393.72h-83.52c.02,1.22.05,2.44.05,3.67,0,48.2-12.61,93.45-34.68,132.66l72.35,41.77c29.18-51.5,45.86-111.01,45.86-174.43,0-1.23-.03-2.45-.05-3.67Z" />
      <text class="st16"
        transform="translate(685.14 453.8) rotate(108.55) scale(1.02 1) skewX(-.67)">
        <tspan x="0" y="0">V</tspan>
      </text>
    </g>
    <g>
      <path class="st26"
        d="M161.26,530.05l-72.35,41.77c30.86,54.46,75.72,99.94,129.7,131.54l41.77-72.34c-41.3-24.27-75.6-59.18-99.12-100.97Z" />
      <text class="st17" transform="translate(194.88 610.44) rotate(-136.14) skewX(1.12)">
        <tspan x="0" y="0">V</tspan>
      </text>
    </g>
  </g>
  <g id="mid">
    <g>
      <path class="st25"
        d="M397.39,217.69v-91.11c-48.68,0-94.35,12.85-133.83,35.34l45.57,78.92c26.07-14.73,56.18-23.15,88.26-23.15Z" />
      <text class="st5" transform="translate(323.59 201.92) rotate(-15)">
        <tspan x="0" y="0">M</tspan>
      </text>
    </g>
    <g>
      <path class="st24"
        d="M309.13,240.84l-45.57-78.92c-40.88,23.28-75.1,56.91-99.11,97.31l78.92,45.56c16.01-26.58,38.71-48.67,65.76-63.95Z" />
      <text class="st5" transform="translate(237.57 264.51) rotate(-45)">
        <tspan x="0" y="0">M</tspan>
      </text>
    </g>
    <g>
      <path class="st3"
        d="M243.36,304.79l-78.92-45.56c-23.46,39.47-37.17,85.4-37.82,134.49h91.11c.65-32.49,9.92-62.86,25.63-88.93Z" />
      <text class="st5" transform="translate(194.38 361.73) rotate(-75)">
        <tspan x="0" y="0">M</tspan>
      </text>
    </g>
    <g>
      <path class="st26"
        d="M217.69,397.39c0-1.23.02-2.45.05-3.67h-91.11c-.02,1.22-.05,2.44-.05,3.67,0,48.2,12.61,93.45,34.68,132.66l78.92-45.57c-14.32-25.8-22.49-55.49-22.49-87.09Z" />
      <text class="st5" transform="translate(205.59 467.52) rotate(-105)">
        <tspan x="0" y="0">M</tspan>
      </text>
    </g>
    <g>
      <path class="st24"
        d="M240.18,484.48l-78.92,45.57c23.53,41.79,57.82,76.7,99.12,100.97l45.56-78.92c-27.48-16.27-50.24-39.66-65.76-67.62Z" />
      <text class="st5" transform="translate(268.19 553.53) rotate(-135)">
        <tspan x="0" y="0">M</tspan>
      </text>
    </g>
    <g>
      <path class="st26"
        d="M305.95,552.1l-45.56,78.92c40.19,23.62,87.01,37.18,137,37.18v-91.11c-33.39,0-64.65-9.12-91.44-24.99Z" />
      <text class="st5" transform="translate(365.4 596.72) rotate(-165)">
        <tspan x="0" y="0">M</tspan>
      </text>
    </g>
    <g>
      <path class="st25"
        d="M397.39,577.08v91.11c49.99,0,96.81-13.56,137-37.18l-45.56-78.92c-26.79,15.87-58.05,24.99-91.44,24.99Z" />
      <text class="st5" transform="translate(471.19 585.52) rotate(165)">
        <tspan x="0" y="0">M</tspan>
      </text>
    </g>
    <g>
      <path class="st3"
        d="M488.83,552.1l45.56,78.92c41.3-24.27,75.6-59.18,99.12-100.97l-78.92-45.57c-15.52,27.96-38.29,51.34-65.76,67.62Z" />
      <text class="st5" transform="translate(557.2 522.92) rotate(135)">
        <tspan x="0" y="0">M</tspan>
      </text>
    </g>
    <g>
      <path class="st25"
        d="M577.08,397.39c0,31.6-8.17,61.29-22.49,87.09l78.92,45.57c22.07-39.21,34.68-84.46,34.68-132.66,0-1.23-.03-2.45-.05-3.67h-91.11c.02,1.22.05,2.44.05,3.67Z" />
      <text class="st5" transform="translate(600.39 425.7) rotate(105)">
        <tspan x="0" y="0">M</tspan>
      </text>
    </g>
    <g>
      <path class="st24"
        d="M551.41,304.79c15.7,26.06,24.97,56.44,25.63,88.93h91.11c-.65-49.09-14.36-95.02-37.82-134.49l-78.92,45.56Z" />
      <text class="st5" transform="translate(589.19 319.92) rotate(75)">
        <tspan x="0" y="0">M</tspan>
      </text>
    </g>
    <g>
      <path class="st3"
        d="M551.41,304.79l78.92-45.56c-24.02-40.4-58.23-74.03-99.11-97.31l-45.57,78.92c27.05,15.29,49.75,37.37,65.76,63.95Z" />
      <text class="st5" transform="translate(526.59 233.9) rotate(45)">
        <tspan x="0" y="0">M</tspan>
      </text>
    </g>
    <g>
      <path class="st26"
        d="M485.65,240.84l45.57-78.92c-39.48-22.48-85.15-35.34-133.83-35.34v91.11c32.08,0,62.19,8.42,88.26,23.15Z" />
      <text class="st5" transform="translate(429.37 190.71) rotate(15)">
        <tspan x="0" y="0">M</tspan>
      </text>
    </g>
  </g>
  <g id="int">
    <g>
      <path class="st26"
        d="M397.39,304v-86.3c-32.08,0-62.19,8.42-88.26,23.15l43.16,74.76c13.37-7.39,28.74-11.6,45.1-11.6Z" />
      <text class="st6" transform="translate(362.23 280.81) rotate(-15)">
        <tspan x="0" y="0">I</tspan>
      </text>
    </g>
    <g>
      <path class="st3"
        d="M352.29,315.6l-43.16-74.76c-27.05,15.29-49.75,37.37-65.76,63.95l74.78,43.17c8.43-13.48,20.19-24.66,34.14-32.37Z" />
      <text class="st6" transform="translate(310.49 313.51) rotate(-45)">
        <tspan x="0" y="0">I</tspan>
      </text>
    </g>
    <g>
      <path class="st26"
        d="M318.14,347.96l-74.78-43.17c-15.7,26.06-24.97,56.44-25.63,88.93h86.34c.65-16.76,5.71-32.39,14.07-45.75Z" />
      <text class="st6" transform="translate(282.03 367.71) rotate(-75)">
        <tspan x="0" y="0">I</tspan>
      </text>
    </g>
    <g>
      <path class="st24"
        d="M304,397.39c0-1.23.03-2.45.08-3.67h-86.34c-.02,1.22-.05,2.44-.05,3.67,0,31.6,8.17,61.29,22.49,87.09l74.77-43.17c-6.99-13.09-10.96-28.04-10.96-43.92Z" />
      <text class="st6" transform="translate(284.48 428.88) rotate(-105)">
        <tspan x="0" y="0">I</tspan>
      </text>
    </g>
    <g>
      <path class="st25"
        d="M314.96,441.31l-74.77,43.17c15.52,27.96,38.29,51.34,65.76,67.62l43.16-74.75c-14.38-8.7-26.21-21.17-34.15-36.03Z" />
      <text class="st6" transform="translate(317.19 480.62) rotate(-135)">
        <tspan x="0" y="0">I</tspan>
      </text>
    </g>
    <g>
      <path class="st3"
        d="M349.11,477.35l-43.16,74.75c26.79,15.87,58.05,24.99,91.44,24.99v-86.3c-17.67,0-34.19-4.91-48.28-13.44Z" />
      <text class="st6" transform="translate(371.38 509.08) rotate(-165)">
        <tspan x="0" y="0">I</tspan>
      </text>
    </g>
    <g>
      <path class="st24"
        d="M397.39,490.78v86.3c33.39,0,64.65-9.12,91.44-24.99l-43.16-74.75c-14.09,8.53-30.61,13.44-48.28,13.44Z" />
      <text class="st6" transform="translate(432.55 506.63) rotate(165)">
        <tspan x="0" y="0">I</tspan>
      </text>
    </g>
    <g>
      <path class="st25"
        d="M445.67,477.35l43.16,74.75c27.48-16.27,50.24-39.66,65.76-67.62l-74.77-43.17c-7.94,14.87-19.77,27.34-34.15,36.03Z" />
      <text class="st6" transform="translate(484.29 473.92) rotate(135)">
        <tspan x="0" y="0">I</tspan>
      </text>
    </g>
    <g>
      <path class="st3"
        d="M490.78,397.39c0,15.88-3.97,30.83-10.96,43.92l74.77,43.17c14.32-25.8,22.49-55.49,22.49-87.09,0-1.23-.02-2.45-.05-3.67h-86.34c.05,1.22.08,2.44.08,3.67Z" />
      <text class="st6" transform="translate(512.75 419.73) rotate(105)">
        <tspan x="0" y="0">I</tspan>
      </text>
    </g>
    <g>
      <path class="st26"
        d="M490.7,393.72h86.34c-.65-32.49-9.92-62.86-25.63-88.93l-74.78,43.17c8.35,13.36,13.42,28.99,14.07,45.75Z" />
      <text class="st6" transform="translate(510.3 358.56) rotate(75)">
        <tspan x="0" y="0">I</tspan>
      </text>
    </g>
    <g>
      <path class="st25"
        d="M485.65,240.84l-43.16,74.76c13.95,7.71,25.72,18.89,34.14,32.37l74.78-43.17c-16.01-26.58-38.71-48.67-65.76-63.95Z" />
      <text class="st6" transform="translate(477.59 306.82) rotate(45)">
        <tspan x="0" y="0">I</tspan>
      </text>
    </g>
    <g>
      <path class="st24"
        d="M442.49,315.6l43.16-74.76c-26.07-14.73-56.18-23.15-88.26-23.15v86.3c16.36,0,31.73,4.21,45.1,11.6Z" />
      <text class="st6" transform="translate(423.4 278.36) rotate(15)">
        <tspan x="0" y="0">I</tspan>
      </text>
    </g>
  </g>
</svg>